Full movie - 720p wmv [36 min 35 sec] plus Photoset x174 [1280 x 853]

 
http://bayimg.com/hafhjaael
 
http://bayimg.com/haFHKaaEl
 
http://bayimg.com/hafHiAaEl
 
http://bayimg.com/HAfHhaaeL
 
http://bayimg.com/hAFhgaAEl
 
http://bayimg.com/hafHFAAel


General

Format                                   : Windows Media
File size                                : 815 MiB
Duration                                 : 36mn 35s
Overall bit rate mode                    : Constant
Overall bit rate                         : 3 113 Kbps
Maximum Overall bit rate                 : 3 123 Kbps

Video

ID                                       : 2
Format                                   : VC-1
Format profile                           : MP@HL
Codec ID                                 : WMV3
Codec ID/Info                            : Windows Media Video 9
Codec ID/Hint                            : WMV3
Description of the codec                 : Windows Media Video 9 - Professional
Duration                                 : 36mn 35s
Bit rate mode                            : Constant
Bit rate                                 : 3 000 Kbps
Width                                    : 1 280 pixels
Height                                   : 720 pixels
Display aspect ratio                     : 16:9
Frame rate                               : 29.970 fps
Bit depth                                : 8 bits
Scan type                                : Progressive
Compression mode                         : Lossy
Bits/(Pixel*Frame)                       : 0.109
Stream size                              : 785 MiB (96%)
Language                                 : Hungarian

Audio

ID                                       : 1
Format                                   : WMA
Format version                           : Version 2
Codec ID                                 : 161
Codec ID/Info                            : Windows Media Audio
Description of the codec                 : Windows Media Audio 9.2 -  96 kbps, 44 kHz, stereo 1-pass CBR
Duration                                 : 36mn 35s
Bit rate mode                            : Constant
Bit rate                                 : 96.0 Kbps
Channel(s)                               : 2 channels
Sampling rate                            : 44.1 KHz
Bit depth                                : 16 bits
Stream size                              : 25.1 MiB (3%)
Language                                 : English (US)